<?xml version="1.0" encoding="UTF-8"?>
<svg xmlns="http://www.w3.org/2000/svg" xmlns:xlink="http://www.w3.org/1999/xlink" width="60pt" height="60pt" viewBox="0 0 60 60" version="1.1">
<g id="surface26414510">
<path style=" stroke:none;fill-rule:nonzero;fill:rgb(29.803923%,32.549021%,35.294119%);fill-opacity:1;" d="M 30 4 C 28.894531 4 28 4.894531 28 6 L 28 6.34375 C 28 7.300781 27.328125 8.152344 26.382812 8.304688 C 25.925781 8.378906 25.472656 8.464844 25.023438 8.566406 C 24.09375 8.777344 23.15625 8.253906 22.792969 7.375 L 22.660156 7.0625 C 22.238281 6.042969 21.070312 5.554688 20.046875 5.980469 C 19.027344 6.402344 18.539062 7.570312 18.964844 8.59375 L 19.097656 8.914062 C 19.464844 9.792969 19.171875 10.835938 18.359375 11.339844 C 17.96875 11.582031 17.585938 11.839844 17.210938 12.105469 C 16.433594 12.660156 15.363281 12.535156 14.6875 11.859375 L 14.445312 11.617188 C 13.664062 10.835938 12.398438 10.835938 11.617188 11.617188 C 10.835938 12.398438 10.835938 13.664062 11.617188 14.445312 L 11.859375 14.6875 C 12.535156 15.363281 12.660156 16.433594 12.105469 17.210938 C 11.839844 17.585938 11.582031 17.96875 11.339844 18.359375 C 10.835938 19.171875 9.792969 19.46875 8.910156 19.101562 L 8.59375 18.96875 C 7.574219 18.546875 6.402344 19.03125 5.976562 20.050781 C 5.554688 21.070312 6.039062 22.238281 7.058594 22.664062 L 7.371094 22.792969 C 8.25 23.15625 8.777344 24.09375 8.566406 25.023438 C 8.464844 25.472656 8.375 25.925781 8.300781 26.382812 C 8.152344 27.324219 7.300781 28 6.34375 28 L 6 28 C 4.894531 28 4 28.894531 4 30 C 4 31.105469 4.894531 32 6 32 L 6.34375 32 C 7.300781 32 8.152344 32.671875 8.304688 33.617188 C 8.378906 34.074219 8.464844 34.527344 8.566406 34.976562 C 8.777344 35.90625 8.253906 36.84375 7.375 37.207031 L 7.0625 37.339844 C 6.042969 37.761719 5.554688 38.929688 5.980469 39.953125 C 6.402344 40.972656 7.570312 41.460938 8.59375 41.035156 L 8.914062 40.902344 C 9.796875 40.535156 10.835938 40.832031 11.34375 41.640625 C 11.585938 42.03125 11.839844 42.417969 12.109375 42.792969 C 12.664062 43.570312 12.539062 44.640625 11.863281 45.316406 L 11.617188 45.558594 C 10.835938 46.339844 10.835938 47.605469 11.617188 48.386719 C 12.398438 49.167969 13.664062 49.167969 14.445312 48.386719 L 14.691406 48.144531 C 15.367188 47.46875 16.433594 47.339844 17.210938 47.894531 C 17.585938 48.164062 17.972656 48.421875 18.363281 48.664062 C 19.171875 49.167969 19.472656 50.210938 19.105469 51.09375 L 18.972656 51.410156 C 18.550781 52.429688 19.035156 53.601562 20.054688 54.027344 C 21.074219 54.449219 22.242188 53.964844 22.667969 52.945312 L 22.796875 52.632812 C 23.160156 51.753906 24.097656 51.226562 25.027344 51.4375 C 25.476562 51.539062 25.929688 51.628906 26.386719 51.703125 C 27.324219 51.847656 28 52.699219 28 53.65625 L 28 54 C 28 55.105469 28.894531 56 30 56 C 31.105469 56 32 55.105469 32 54 L 32 53.65625 C 32 52.699219 32.671875 51.847656 33.617188 51.695312 C 34.074219 51.621094 34.527344 51.535156 34.976562 51.433594 C 35.90625 51.222656 36.84375 51.746094 37.207031 52.625 L 37.339844 52.9375 C 37.761719 53.957031 38.929688 54.445312 39.953125 54.019531 C 40.972656 53.597656 41.460938 52.429688 41.035156 51.40625 L 40.902344 51.085938 C 40.535156 50.203125 40.832031 49.164062 41.640625 48.65625 C 42.03125 48.414062 42.417969 48.160156 42.792969 47.890625 C 43.570312 47.335938 44.640625 47.460938 45.316406 48.136719 L 45.558594 48.382812 C 46.339844 49.164062 47.605469 49.164062 48.386719 48.382812 C 49.167969 47.601562 49.167969 46.335938 48.386719 45.554688 L 48.144531 45.308594 C 47.46875 44.632812 47.339844 43.566406 47.894531 42.789062 C 48.164062 42.414062 48.421875 42.027344 48.664062 41.636719 C 49.167969 40.828125 50.210938 40.527344 51.09375 40.894531 L 51.410156 41.027344 C 52.429688 41.449219 53.601562 40.964844 54.027344 39.945312 C 54.449219 38.925781 53.964844 37.757812 52.945312 37.332031 L 52.632812 37.203125 C 51.753906 36.839844 51.226562 35.902344 51.4375 34.972656 C 51.539062 34.523438 51.628906 34.070312 51.703125 33.613281 C 51.847656 32.675781 52.699219 32 53.65625 32 L 54 32 C 55.105469 32 56 31.105469 56 30 C 56 28.894531 55.105469 28 54 28 L 53.65625 28 C 52.699219 28 51.847656 27.328125 51.695312 26.382812 C 51.621094 25.925781 51.535156 25.472656 51.433594 25.023438 C 51.222656 24.09375 51.746094 23.15625 52.625 22.792969 L 52.9375 22.660156 C 53.957031 22.238281 54.445312 21.070312 54.019531 20.046875 C 53.597656 19.027344 52.429688 18.539062 51.40625 18.964844 L 51.085938 19.097656 C 50.203125 19.464844 49.164062 19.167969 48.65625 18.359375 C 48.414062 17.96875 48.160156 17.582031 47.890625 17.207031 C 47.335938 16.429688 47.460938 15.359375 48.136719 14.683594 L 48.382812 14.441406 C 49.164062 13.660156 49.164062 12.394531 48.382812 11.613281 C 47.601562 10.832031 46.335938 10.832031 45.554688 11.613281 L 45.3125 11.859375 C 44.636719 12.535156 43.566406 12.664062 42.789062 12.109375 C 42.414062 11.839844 42.027344 11.582031 41.636719 11.339844 C 40.828125 10.835938 40.53125 9.792969 40.898438 8.910156 L 41.03125 8.59375 C 41.453125 7.574219 40.96875 6.402344 39.949219 5.976562 C 38.929688 5.554688 37.761719 6.039062 37.335938 7.058594 L 37.203125 7.371094 C 36.839844 8.25 35.902344 8.777344 34.972656 8.566406 C 34.523438 8.464844 34.070312 8.375 33.613281 8.300781 C 32.671875 8.152344 32 7.300781 32 6.34375 L 32 6 C 32 4.894531 31.105469 4 30 4 Z M 30 14 C 38.15625 14 44.878906 20.109375 45.863281 28 L 33.457031 28 C 32.742188 26.765625 31.425781 26.003906 30 26 C 30 26 29.996094 26 29.996094 26 L 23.792969 15.25 C 25.703125 14.445312 27.796875 14 30 14 Z M 20.339844 17.265625 L 26.539062 28 C 26.1875 28.609375 26 29.296875 26 30 C 26.003906 30.699219 26.1875 31.386719 26.539062 31.992188 L 20.335938 42.730469 C 16.492188 39.808594 14 35.199219 14 30 C 14 24.796875 16.496094 20.1875 20.339844 17.265625 Z M 33.460938 32 L 45.863281 32 C 44.878906 39.890625 38.15625 46 30 46 C 27.796875 46 25.703125 45.554688 23.792969 44.75 L 29.996094 34 C 29.996094 34 30 34 30 34 C 31.429688 34 32.746094 33.238281 33.460938 32 Z M 33.460938 32 "/>
</g>
</svg>
